<mxfile host="app.diagrams.net" modified="2023-02-24T02:45:53.462Z" agent="5.0 (Windows NT 10.0; Win64; x64) AppleWebKit/537.36 (KHTML, like Gecko) Chrome/98.0.4758.102 Safari/537.36" etag="xtD1PtMumjz_CPkM_r8q" version="20.8.20" type="github">
  <diagram name="Page-1" id="fvZtucp0CPVFHTlMydHr">
    <mxGraphModel dx="1434" dy="764" grid="1" gridSize="10" guides="1" tooltips="1" connect="1" arrows="1" fold="1" page="1" pageScale="1" pageWidth="827" pageHeight="1169" math="0" shadow="0">
      <root>
        <mxCell id="0" />
        <mxCell id="1" parent="0" />
        <mxCell id="rGoYTu1NoxP7TWy1emnq-135" value="" style="rounded=1;whiteSpace=wrap;html=1;dashed=1;fontSize=22;fillColor=#f5f5f5;fontColor=#333333;strokeColor=#666666;" vertex="1" parent="1">
          <mxGeometry x="642.38" y="1440" width="375.25" height="220" as="geometry" />
        </mxCell>
        <mxCell id="rGoYTu1NoxP7TWy1emnq-103" style="edgeStyle=none;rounded=0;orthogonalLoop=1;jettySize=auto;html=1;fontSize=22;" edge="1" parent="1" source="rGoYTu1NoxP7TWy1emnq-2" target="rGoYTu1NoxP7TWy1emnq-23">
          <mxGeometry relative="1" as="geometry" />
        </mxCell>
        <mxCell id="rGoYTu1NoxP7TWy1emnq-104" value="更新数据" style="edgeLabel;html=1;align=center;verticalAlign=middle;resizable=0;points=[];fontSize=22;" vertex="1" connectable="0" parent="rGoYTu1NoxP7TWy1emnq-103">
          <mxGeometry x="-0.1556" y="-1" relative="1" as="geometry">
            <mxPoint as="offset" />
          </mxGeometry>
        </mxCell>
        <mxCell id="rGoYTu1NoxP7TWy1emnq-2" value="Assets" style="childLayout=tableLayout;recursiveResize=0;strokeColor=#98bf21;fillColor=#A7C942;shadow=1;" vertex="1" parent="1">
          <mxGeometry x="110" y="632.5" width="630" height="145" as="geometry" />
        </mxCell>
        <mxCell id="rGoYTu1NoxP7TWy1emnq-3" style="shape=tableRow;horizontal=0;startSize=0;swimlaneHead=0;swimlaneBody=0;top=0;left=0;bottom=0;right=0;dropTarget=0;collapsible=0;recursiveResize=0;expand=0;fontStyle=0;strokeColor=inherit;fillColor=#ffffff;" vertex="1" parent="rGoYTu1NoxP7TWy1emnq-2">
          <mxGeometry width="630" height="20" as="geometry" />
        </mxCell>
        <mxCell id="rGoYTu1NoxP7TWy1emnq-4" value="time_stamp" style="connectable=0;recursiveResize=0;strokeColor=inherit;fillColor=#3333FF;align=center;fontStyle=1;fontColor=#FFFFFF;html=1;" vertex="1" parent="rGoYTu1NoxP7TWy1emnq-3">
          <mxGeometry width="328" height="20" as="geometry">
            <mxRectangle width="328" height="20" as="alternateBounds" />
          </mxGeometry>
        </mxCell>
        <mxCell id="rGoYTu1NoxP7TWy1emnq-5" value="symbol" style="connectable=0;recursiveResize=0;strokeColor=inherit;fillColor=#A7C942;align=center;fontStyle=1;fontColor=#FFFFFF;html=1;" vertex="1" parent="rGoYTu1NoxP7TWy1emnq-3">
          <mxGeometry x="328" width="212" height="20" as="geometry">
            <mxRectangle width="212" height="20" as="alternateBounds" />
          </mxGeometry>
        </mxCell>
        <mxCell id="rGoYTu1NoxP7TWy1emnq-6" value="col-xxx" style="connectable=0;recursiveResize=0;strokeColor=inherit;fillColor=#A7C942;align=center;fontStyle=1;fontColor=#FFFFFF;html=1;" vertex="1" parent="rGoYTu1NoxP7TWy1emnq-3">
          <mxGeometry x="540" width="90" height="20" as="geometry">
            <mxRectangle width="90" height="20" as="alternateBounds" />
          </mxGeometry>
        </mxCell>
        <mxCell id="rGoYTu1NoxP7TWy1emnq-7" value="" style="shape=tableRow;horizontal=0;startSize=0;swimlaneHead=0;swimlaneBody=0;top=0;left=0;bottom=0;right=0;dropTarget=0;collapsible=0;recursiveResize=0;expand=0;fontStyle=0;strokeColor=inherit;fillColor=#ffffff;" vertex="1" parent="rGoYTu1NoxP7TWy1emnq-2">
          <mxGeometry y="20" width="630" height="30" as="geometry" />
        </mxCell>
        <mxCell id="rGoYTu1NoxP7TWy1emnq-8" value="2023-02-21&amp;nbsp; 09:02:45.04546" style="connectable=0;recursiveResize=0;strokeColor=inherit;fillColor=inherit;align=center;whiteSpace=wrap;html=1;" vertex="1" parent="rGoYTu1NoxP7TWy1emnq-7">
          <mxGeometry width="328" height="30" as="geometry">
            <mxRectangle width="328" height="30" as="alternateBounds" />
          </mxGeometry>
        </mxCell>
        <mxCell id="rGoYTu1NoxP7TWy1emnq-9" value="190000001" style="connectable=0;recursiveResize=0;strokeColor=inherit;fillColor=inherit;align=center;whiteSpace=wrap;html=1;" vertex="1" parent="rGoYTu1NoxP7TWy1emnq-7">
          <mxGeometry x="328" width="212" height="30" as="geometry">
            <mxRectangle width="212" height="30" as="alternateBounds" />
          </mxGeometry>
        </mxCell>
        <mxCell id="rGoYTu1NoxP7TWy1emnq-10" value="Value 3" style="connectable=0;recursiveResize=0;strokeColor=inherit;fillColor=inherit;align=center;whiteSpace=wrap;html=1;" vertex="1" parent="rGoYTu1NoxP7TWy1emnq-7">
          <mxGeometry x="540" width="90" height="30" as="geometry">
            <mxRectangle width="90" height="30" as="alternateBounds" />
          </mxGeometry>
        </mxCell>
        <mxCell id="rGoYTu1NoxP7TWy1emnq-11" value="" style="shape=tableRow;horizontal=0;startSize=0;swimlaneHead=0;swimlaneBody=0;top=0;left=0;bottom=0;right=0;dropTarget=0;collapsible=0;recursiveResize=0;expand=0;fontStyle=1;strokeColor=inherit;fillColor=#EAF2D3;" vertex="1" parent="rGoYTu1NoxP7TWy1emnq-2">
          <mxGeometry y="50" width="630" height="31" as="geometry" />
        </mxCell>
        <mxCell id="rGoYTu1NoxP7TWy1emnq-12" value="2023-02-21&amp;nbsp; 09:03:45.04546" style="connectable=0;recursiveResize=0;strokeColor=inherit;fillColor=inherit;whiteSpace=wrap;html=1;" vertex="1" parent="rGoYTu1NoxP7TWy1emnq-11">
          <mxGeometry width="328" height="31" as="geometry">
            <mxRectangle width="328" height="31" as="alternateBounds" />
          </mxGeometry>
        </mxCell>
        <mxCell id="rGoYTu1NoxP7TWy1emnq-13" value="190000001" style="connectable=0;recursiveResize=0;strokeColor=inherit;fillColor=inherit;whiteSpace=wrap;html=1;" vertex="1" parent="rGoYTu1NoxP7TWy1emnq-11">
          <mxGeometry x="328" width="212" height="31" as="geometry">
            <mxRectangle width="212" height="31" as="alternateBounds" />
          </mxGeometry>
        </mxCell>
        <mxCell id="rGoYTu1NoxP7TWy1emnq-14" value="Value 6" style="connectable=0;recursiveResize=0;strokeColor=inherit;fillColor=inherit;whiteSpace=wrap;html=1;" vertex="1" parent="rGoYTu1NoxP7TWy1emnq-11">
          <mxGeometry x="540" width="90" height="31" as="geometry">
            <mxRectangle width="90" height="31" as="alternateBounds" />
          </mxGeometry>
        </mxCell>
        <mxCell id="rGoYTu1NoxP7TWy1emnq-15" value="" style="shape=tableRow;horizontal=0;startSize=0;swimlaneHead=0;swimlaneBody=0;top=0;left=0;bottom=0;right=0;dropTarget=0;collapsible=0;recursiveResize=0;expand=0;fontStyle=0;strokeColor=inherit;fillColor=#ffffff;" vertex="1" parent="rGoYTu1NoxP7TWy1emnq-2">
          <mxGeometry y="81" width="630" height="33" as="geometry" />
        </mxCell>
        <mxCell id="rGoYTu1NoxP7TWy1emnq-16" value="2023-02-21&amp;nbsp; 09:03:45.04546" style="connectable=0;recursiveResize=0;strokeColor=inherit;fillColor=inherit;fontStyle=0;align=center;whiteSpace=wrap;html=1;" vertex="1" parent="rGoYTu1NoxP7TWy1emnq-15">
          <mxGeometry width="328" height="33" as="geometry">
            <mxRectangle width="328" height="33" as="alternateBounds" />
          </mxGeometry>
        </mxCell>
        <mxCell id="rGoYTu1NoxP7TWy1emnq-17" value="190000001" style="connectable=0;recursiveResize=0;strokeColor=inherit;fillColor=inherit;fontStyle=0;align=center;whiteSpace=wrap;html=1;" vertex="1" parent="rGoYTu1NoxP7TWy1emnq-15">
          <mxGeometry x="328" width="212" height="33" as="geometry">
            <mxRectangle width="212" height="33" as="alternateBounds" />
          </mxGeometry>
        </mxCell>
        <mxCell id="rGoYTu1NoxP7TWy1emnq-18" value="Value 9" style="connectable=0;recursiveResize=0;strokeColor=inherit;fillColor=inherit;fontStyle=0;align=center;whiteSpace=wrap;html=1;" vertex="1" parent="rGoYTu1NoxP7TWy1emnq-15">
          <mxGeometry x="540" width="90" height="33" as="geometry">
            <mxRectangle width="90" height="33" as="alternateBounds" />
          </mxGeometry>
        </mxCell>
        <mxCell id="rGoYTu1NoxP7TWy1emnq-19" value="" style="shape=tableRow;horizontal=0;startSize=0;swimlaneHead=0;swimlaneBody=0;top=0;left=0;bottom=0;right=0;dropTarget=0;collapsible=0;recursiveResize=0;expand=0;fontStyle=1;strokeColor=inherit;fillColor=#EAF2D3;" vertex="1" parent="rGoYTu1NoxP7TWy1emnq-2">
          <mxGeometry y="114" width="630" height="31" as="geometry" />
        </mxCell>
        <mxCell id="rGoYTu1NoxP7TWy1emnq-20" value="2023-02-22&amp;nbsp; 09:02:45.04546" style="connectable=0;recursiveResize=0;strokeColor=inherit;fillColor=inherit;whiteSpace=wrap;html=1;" vertex="1" parent="rGoYTu1NoxP7TWy1emnq-19">
          <mxGeometry width="328" height="31" as="geometry">
            <mxRectangle width="328" height="31" as="alternateBounds" />
          </mxGeometry>
        </mxCell>
        <mxCell id="rGoYTu1NoxP7TWy1emnq-21" value="190000001" style="connectable=0;recursiveResize=0;strokeColor=inherit;fillColor=inherit;whiteSpace=wrap;html=1;" vertex="1" parent="rGoYTu1NoxP7TWy1emnq-19">
          <mxGeometry x="328" width="212" height="31" as="geometry">
            <mxRectangle width="212" height="31" as="alternateBounds" />
          </mxGeometry>
        </mxCell>
        <mxCell id="rGoYTu1NoxP7TWy1emnq-22" value="Value 12" style="connectable=0;recursiveResize=0;strokeColor=inherit;fillColor=inherit;whiteSpace=wrap;html=1;" vertex="1" parent="rGoYTu1NoxP7TWy1emnq-19">
          <mxGeometry x="540" width="90" height="31" as="geometry">
            <mxRectangle width="90" height="31" as="alternateBounds" />
          </mxGeometry>
        </mxCell>
        <mxCell id="rGoYTu1NoxP7TWy1emnq-110" style="edgeStyle=none;rounded=0;orthogonalLoop=1;jettySize=auto;html=1;entryX=0.5;entryY=0;entryDx=0;entryDy=0;dashed=1;fontSize=22;" edge="1" parent="1" source="rGoYTu1NoxP7TWy1emnq-23" target="rGoYTu1NoxP7TWy1emnq-109">
          <mxGeometry relative="1" as="geometry" />
        </mxCell>
        <mxCell id="rGoYTu1NoxP7TWy1emnq-111" style="edgeStyle=none;rounded=0;orthogonalLoop=1;jettySize=auto;html=1;entryX=0.5;entryY=0;entryDx=0;entryDy=0;dashed=1;fontSize=22;" edge="1" parent="1" source="rGoYTu1NoxP7TWy1emnq-23" target="rGoYTu1NoxP7TWy1emnq-108">
          <mxGeometry relative="1" as="geometry" />
        </mxCell>
        <mxCell id="rGoYTu1NoxP7TWy1emnq-112" style="edgeStyle=none;rounded=0;orthogonalLoop=1;jettySize=auto;html=1;entryX=0.5;entryY=0;entryDx=0;entryDy=0;fontSize=22;" edge="1" parent="1" source="rGoYTu1NoxP7TWy1emnq-23" target="rGoYTu1NoxP7TWy1emnq-107">
          <mxGeometry relative="1" as="geometry" />
        </mxCell>
        <mxCell id="rGoYTu1NoxP7TWy1emnq-116" style="edgeStyle=none;rounded=0;orthogonalLoop=1;jettySize=auto;html=1;fontSize=22;" edge="1" parent="1" source="rGoYTu1NoxP7TWy1emnq-23" target="rGoYTu1NoxP7TWy1emnq-114">
          <mxGeometry relative="1" as="geometry" />
        </mxCell>
        <mxCell id="rGoYTu1NoxP7TWy1emnq-117" style="edgeStyle=none;rounded=0;orthogonalLoop=1;jettySize=auto;html=1;fontSize=22;" edge="1" parent="1" source="rGoYTu1NoxP7TWy1emnq-23" target="rGoYTu1NoxP7TWy1emnq-115">
          <mxGeometry relative="1" as="geometry" />
        </mxCell>
        <mxCell id="rGoYTu1NoxP7TWy1emnq-23" value="&lt;font style=&quot;font-size: 22px;&quot;&gt;创建 dataset (stock_marketl2)&lt;br&gt;/xxx/dataset/stock_marketl2&lt;br&gt;&lt;/font&gt;" style="rounded=0;whiteSpace=wrap;html=1;fillColor=#FFFFFF;" vertex="1" parent="1">
          <mxGeometry x="370" y="860" width="450" height="60" as="geometry" />
        </mxCell>
        <mxCell id="rGoYTu1NoxP7TWy1emnq-24" value="WizardQuasnt-Equity-Ares-CS 数据" style="text;html=1;strokeColor=none;fillColor=none;align=center;verticalAlign=middle;whiteSpace=wrap;rounded=0;fontSize=22;" vertex="1" parent="1">
          <mxGeometry x="530" y="110" width="390" height="30" as="geometry" />
        </mxCell>
        <mxCell id="rGoYTu1NoxP7TWy1emnq-97" style="edgeStyle=none;rounded=0;orthogonalLoop=1;jettySize=auto;html=1;entryX=0.5;entryY=0;entryDx=0;entryDy=0;fontSize=22;" edge="1" parent="1" source="rGoYTu1NoxP7TWy1emnq-25" target="rGoYTu1NoxP7TWy1emnq-3">
          <mxGeometry relative="1" as="geometry" />
        </mxCell>
        <mxCell id="rGoYTu1NoxP7TWy1emnq-99" value="处理数据" style="edgeLabel;html=1;align=center;verticalAlign=middle;resizable=0;points=[];fontSize=22;" vertex="1" connectable="0" parent="rGoYTu1NoxP7TWy1emnq-97">
          <mxGeometry x="-0.1353" relative="1" as="geometry">
            <mxPoint x="13" y="-5" as="offset" />
          </mxGeometry>
        </mxCell>
        <mxCell id="rGoYTu1NoxP7TWy1emnq-106" style="edgeStyle=none;rounded=0;orthogonalLoop=1;jettySize=auto;html=1;entryX=0.5;entryY=0;entryDx=0;entryDy=0;fontSize=22;dashed=1;" edge="1" parent="1" source="rGoYTu1NoxP7TWy1emnq-25" target="rGoYTu1NoxP7TWy1emnq-105">
          <mxGeometry relative="1" as="geometry" />
        </mxCell>
        <mxCell id="rGoYTu1NoxP7TWy1emnq-25" value="数据分类提取&lt;br&gt;处理symbol， 提取分类数据" style="rounded=0;whiteSpace=wrap;html=1;fontSize=22;fillColor=#FFFFFF;" vertex="1" parent="1">
          <mxGeometry x="620" y="430" width="330" height="60" as="geometry" />
        </mxCell>
        <mxCell id="rGoYTu1NoxP7TWy1emnq-95" style="rounded=0;orthogonalLoop=1;jettySize=auto;html=1;fontSize=22;entryX=0.25;entryY=0;entryDx=0;entryDy=0;" edge="1" parent="1" source="rGoYTu1NoxP7TWy1emnq-47" target="rGoYTu1NoxP7TWy1emnq-25">
          <mxGeometry relative="1" as="geometry">
            <mxPoint x="734" y="430" as="targetPoint" />
          </mxGeometry>
        </mxCell>
        <mxCell id="rGoYTu1NoxP7TWy1emnq-47" value="Assets" style="childLayout=tableLayout;recursiveResize=0;strokeColor=#98bf21;fillColor=#A7C942;shadow=1;" vertex="1" parent="1">
          <mxGeometry x="110" y="180" width="630" height="140" as="geometry" />
        </mxCell>
        <mxCell id="rGoYTu1NoxP7TWy1emnq-48" style="shape=tableRow;horizontal=0;startSize=0;swimlaneHead=0;swimlaneBody=0;top=0;left=0;bottom=0;right=0;dropTarget=0;collapsible=0;recursiveResize=0;expand=0;fontStyle=0;strokeColor=inherit;fillColor=#ffffff;" vertex="1" parent="rGoYTu1NoxP7TWy1emnq-47">
          <mxGeometry width="630" height="19" as="geometry" />
        </mxCell>
        <mxCell id="rGoYTu1NoxP7TWy1emnq-49" value="time_stamp" style="connectable=0;recursiveResize=0;strokeColor=inherit;fillColor=#3333FF;align=center;fontStyle=1;fontColor=#FFFFFF;html=1;" vertex="1" parent="rGoYTu1NoxP7TWy1emnq-48">
          <mxGeometry width="328" height="19" as="geometry">
            <mxRectangle width="328" height="19" as="alternateBounds" />
          </mxGeometry>
        </mxCell>
        <mxCell id="rGoYTu1NoxP7TWy1emnq-50" value="symbol" style="connectable=0;recursiveResize=0;strokeColor=inherit;fillColor=#A7C942;align=center;fontStyle=1;fontColor=#FFFFFF;html=1;" vertex="1" parent="rGoYTu1NoxP7TWy1emnq-48">
          <mxGeometry x="328" width="212" height="19" as="geometry">
            <mxRectangle width="212" height="19" as="alternateBounds" />
          </mxGeometry>
        </mxCell>
        <mxCell id="rGoYTu1NoxP7TWy1emnq-51" value="col-xxx" style="connectable=0;recursiveResize=0;strokeColor=inherit;fillColor=#A7C942;align=center;fontStyle=1;fontColor=#FFFFFF;html=1;" vertex="1" parent="rGoYTu1NoxP7TWy1emnq-48">
          <mxGeometry x="540" width="90" height="19" as="geometry">
            <mxRectangle width="90" height="19" as="alternateBounds" />
          </mxGeometry>
        </mxCell>
        <mxCell id="rGoYTu1NoxP7TWy1emnq-52" value="" style="shape=tableRow;horizontal=0;startSize=0;swimlaneHead=0;swimlaneBody=0;top=0;left=0;bottom=0;right=0;dropTarget=0;collapsible=0;recursiveResize=0;expand=0;fontStyle=0;strokeColor=inherit;fillColor=#ffffff;" vertex="1" parent="rGoYTu1NoxP7TWy1emnq-47">
          <mxGeometry y="19" width="630" height="29" as="geometry" />
        </mxCell>
        <mxCell id="rGoYTu1NoxP7TWy1emnq-53" value="2023-02-21&amp;nbsp; 09:02:45.04546" style="connectable=0;recursiveResize=0;strokeColor=inherit;fillColor=inherit;align=center;whiteSpace=wrap;html=1;" vertex="1" parent="rGoYTu1NoxP7TWy1emnq-52">
          <mxGeometry width="328" height="29" as="geometry">
            <mxRectangle width="328" height="29" as="alternateBounds" />
          </mxGeometry>
        </mxCell>
        <mxCell id="rGoYTu1NoxP7TWy1emnq-54" value="20230221.190000001.WQMarketL2" style="connectable=0;recursiveResize=0;strokeColor=inherit;fillColor=inherit;align=center;whiteSpace=wrap;html=1;" vertex="1" parent="rGoYTu1NoxP7TWy1emnq-52">
          <mxGeometry x="328" width="212" height="29" as="geometry">
            <mxRectangle width="212" height="29" as="alternateBounds" />
          </mxGeometry>
        </mxCell>
        <mxCell id="rGoYTu1NoxP7TWy1emnq-55" value="Value 3" style="connectable=0;recursiveResize=0;strokeColor=inherit;fillColor=inherit;align=center;whiteSpace=wrap;html=1;" vertex="1" parent="rGoYTu1NoxP7TWy1emnq-52">
          <mxGeometry x="540" width="90" height="29" as="geometry">
            <mxRectangle width="90" height="29" as="alternateBounds" />
          </mxGeometry>
        </mxCell>
        <mxCell id="rGoYTu1NoxP7TWy1emnq-56" value="" style="shape=tableRow;horizontal=0;startSize=0;swimlaneHead=0;swimlaneBody=0;top=0;left=0;bottom=0;right=0;dropTarget=0;collapsible=0;recursiveResize=0;expand=0;fontStyle=1;strokeColor=inherit;fillColor=#EAF2D3;" vertex="1" parent="rGoYTu1NoxP7TWy1emnq-47">
          <mxGeometry y="48" width="630" height="30" as="geometry" />
        </mxCell>
        <mxCell id="rGoYTu1NoxP7TWy1emnq-57" value="2023-02-21&amp;nbsp; 09:03:45.04546" style="connectable=0;recursiveResize=0;strokeColor=inherit;fillColor=inherit;whiteSpace=wrap;html=1;" vertex="1" parent="rGoYTu1NoxP7TWy1emnq-56">
          <mxGeometry width="328" height="30" as="geometry">
            <mxRectangle width="328" height="30" as="alternateBounds" />
          </mxGeometry>
        </mxCell>
        <mxCell id="rGoYTu1NoxP7TWy1emnq-58" value="20230221.190000001.WQMarketL2" style="connectable=0;recursiveResize=0;strokeColor=inherit;fillColor=inherit;whiteSpace=wrap;html=1;" vertex="1" parent="rGoYTu1NoxP7TWy1emnq-56">
          <mxGeometry x="328" width="212" height="30" as="geometry">
            <mxRectangle width="212" height="30" as="alternateBounds" />
          </mxGeometry>
        </mxCell>
        <mxCell id="rGoYTu1NoxP7TWy1emnq-59" value="Value 6" style="connectable=0;recursiveResize=0;strokeColor=inherit;fillColor=inherit;whiteSpace=wrap;html=1;" vertex="1" parent="rGoYTu1NoxP7TWy1emnq-56">
          <mxGeometry x="540" width="90" height="30" as="geometry">
            <mxRectangle width="90" height="30" as="alternateBounds" />
          </mxGeometry>
        </mxCell>
        <mxCell id="rGoYTu1NoxP7TWy1emnq-60" value="" style="shape=tableRow;horizontal=0;startSize=0;swimlaneHead=0;swimlaneBody=0;top=0;left=0;bottom=0;right=0;dropTarget=0;collapsible=0;recursiveResize=0;expand=0;fontStyle=0;strokeColor=inherit;fillColor=#ffffff;" vertex="1" parent="rGoYTu1NoxP7TWy1emnq-47">
          <mxGeometry y="78" width="630" height="32" as="geometry" />
        </mxCell>
        <mxCell id="rGoYTu1NoxP7TWy1emnq-61" value="2023-02-21&amp;nbsp; 09:03:45.04546" style="connectable=0;recursiveResize=0;strokeColor=inherit;fillColor=inherit;fontStyle=0;align=center;whiteSpace=wrap;html=1;" vertex="1" parent="rGoYTu1NoxP7TWy1emnq-60">
          <mxGeometry width="328" height="32" as="geometry">
            <mxRectangle width="328" height="32" as="alternateBounds" />
          </mxGeometry>
        </mxCell>
        <mxCell id="rGoYTu1NoxP7TWy1emnq-62" value="20230221.190000001.WQMarketL2" style="connectable=0;recursiveResize=0;strokeColor=inherit;fillColor=inherit;fontStyle=0;align=center;whiteSpace=wrap;html=1;" vertex="1" parent="rGoYTu1NoxP7TWy1emnq-60">
          <mxGeometry x="328" width="212" height="32" as="geometry">
            <mxRectangle width="212" height="32" as="alternateBounds" />
          </mxGeometry>
        </mxCell>
        <mxCell id="rGoYTu1NoxP7TWy1emnq-63" value="Value 9" style="connectable=0;recursiveResize=0;strokeColor=inherit;fillColor=inherit;fontStyle=0;align=center;whiteSpace=wrap;html=1;" vertex="1" parent="rGoYTu1NoxP7TWy1emnq-60">
          <mxGeometry x="540" width="90" height="32" as="geometry">
            <mxRectangle width="90" height="32" as="alternateBounds" />
          </mxGeometry>
        </mxCell>
        <mxCell id="rGoYTu1NoxP7TWy1emnq-64" value="" style="shape=tableRow;horizontal=0;startSize=0;swimlaneHead=0;swimlaneBody=0;top=0;left=0;bottom=0;right=0;dropTarget=0;collapsible=0;recursiveResize=0;expand=0;fontStyle=1;strokeColor=inherit;fillColor=#EAF2D3;" vertex="1" parent="rGoYTu1NoxP7TWy1emnq-47">
          <mxGeometry y="110" width="630" height="30" as="geometry" />
        </mxCell>
        <mxCell id="rGoYTu1NoxP7TWy1emnq-65" value="2023-02-22&amp;nbsp; 09:02:45.04546" style="connectable=0;recursiveResize=0;strokeColor=inherit;fillColor=inherit;whiteSpace=wrap;html=1;" vertex="1" parent="rGoYTu1NoxP7TWy1emnq-64">
          <mxGeometry width="328" height="30" as="geometry">
            <mxRectangle width="328" height="30" as="alternateBounds" />
          </mxGeometry>
        </mxCell>
        <mxCell id="rGoYTu1NoxP7TWy1emnq-66" value="20230221.190000001.WQMarketL2" style="connectable=0;recursiveResize=0;strokeColor=inherit;fillColor=inherit;whiteSpace=wrap;html=1;" vertex="1" parent="rGoYTu1NoxP7TWy1emnq-64">
          <mxGeometry x="328" width="212" height="30" as="geometry">
            <mxRectangle width="212" height="30" as="alternateBounds" />
          </mxGeometry>
        </mxCell>
        <mxCell id="rGoYTu1NoxP7TWy1emnq-67" value="Value 12" style="connectable=0;recursiveResize=0;strokeColor=inherit;fillColor=inherit;whiteSpace=wrap;html=1;" vertex="1" parent="rGoYTu1NoxP7TWy1emnq-64">
          <mxGeometry x="540" width="90" height="30" as="geometry">
            <mxRectangle width="90" height="30" as="alternateBounds" />
          </mxGeometry>
        </mxCell>
        <mxCell id="rGoYTu1NoxP7TWy1emnq-96" style="edgeStyle=none;rounded=0;orthogonalLoop=1;jettySize=auto;html=1;entryX=0.75;entryY=0;entryDx=0;entryDy=0;fontSize=22;" edge="1" parent="1" source="rGoYTu1NoxP7TWy1emnq-72" target="rGoYTu1NoxP7TWy1emnq-25">
          <mxGeometry relative="1" as="geometry" />
        </mxCell>
        <mxCell id="rGoYTu1NoxP7TWy1emnq-72" value="Assets" style="childLayout=tableLayout;recursiveResize=0;strokeColor=#98bf21;fillColor=#A7C942;shadow=1;" vertex="1" parent="1">
          <mxGeometry x="820" y="180" width="630" height="145" as="geometry" />
        </mxCell>
        <mxCell id="rGoYTu1NoxP7TWy1emnq-73" style="shape=tableRow;horizontal=0;startSize=0;swimlaneHead=0;swimlaneBody=0;top=0;left=0;bottom=0;right=0;dropTarget=0;collapsible=0;recursiveResize=0;expand=0;fontStyle=0;strokeColor=inherit;fillColor=#ffffff;" vertex="1" parent="rGoYTu1NoxP7TWy1emnq-72">
          <mxGeometry width="630" height="20" as="geometry" />
        </mxCell>
        <mxCell id="rGoYTu1NoxP7TWy1emnq-74" value="time_stamp" style="connectable=0;recursiveResize=0;strokeColor=inherit;fillColor=#3333FF;align=center;fontStyle=1;fontColor=#FFFFFF;html=1;" vertex="1" parent="rGoYTu1NoxP7TWy1emnq-73">
          <mxGeometry width="328" height="20" as="geometry">
            <mxRectangle width="328" height="20" as="alternateBounds" />
          </mxGeometry>
        </mxCell>
        <mxCell id="rGoYTu1NoxP7TWy1emnq-75" value="symbol" style="connectable=0;recursiveResize=0;strokeColor=inherit;fillColor=#A7C942;align=center;fontStyle=1;fontColor=#FFFFFF;html=1;" vertex="1" parent="rGoYTu1NoxP7TWy1emnq-73">
          <mxGeometry x="328" width="212" height="20" as="geometry">
            <mxRectangle width="212" height="20" as="alternateBounds" />
          </mxGeometry>
        </mxCell>
        <mxCell id="rGoYTu1NoxP7TWy1emnq-76" value="col-xxx" style="connectable=0;recursiveResize=0;strokeColor=inherit;fillColor=#A7C942;align=center;fontStyle=1;fontColor=#FFFFFF;html=1;" vertex="1" parent="rGoYTu1NoxP7TWy1emnq-73">
          <mxGeometry x="540" width="90" height="20" as="geometry">
            <mxRectangle width="90" height="20" as="alternateBounds" />
          </mxGeometry>
        </mxCell>
        <mxCell id="rGoYTu1NoxP7TWy1emnq-77" value="" style="shape=tableRow;horizontal=0;startSize=0;swimlaneHead=0;swimlaneBody=0;top=0;left=0;bottom=0;right=0;dropTarget=0;collapsible=0;recursiveResize=0;expand=0;fontStyle=0;strokeColor=inherit;fillColor=#ffffff;" vertex="1" parent="rGoYTu1NoxP7TWy1emnq-72">
          <mxGeometry y="20" width="630" height="30" as="geometry" />
        </mxCell>
        <mxCell id="rGoYTu1NoxP7TWy1emnq-78" value="2023-02-21&amp;nbsp; 09:02:45.04546" style="connectable=0;recursiveResize=0;strokeColor=inherit;fillColor=inherit;align=center;whiteSpace=wrap;html=1;" vertex="1" parent="rGoYTu1NoxP7TWy1emnq-77">
          <mxGeometry width="328" height="30" as="geometry">
            <mxRectangle width="328" height="30" as="alternateBounds" />
          </mxGeometry>
        </mxCell>
        <mxCell id="rGoYTu1NoxP7TWy1emnq-79" value="20230221.CBond123090.WQMarketL2" style="connectable=0;recursiveResize=0;strokeColor=inherit;fillColor=inherit;align=center;whiteSpace=wrap;html=1;" vertex="1" parent="rGoYTu1NoxP7TWy1emnq-77">
          <mxGeometry x="328" width="212" height="30" as="geometry">
            <mxRectangle width="212" height="30" as="alternateBounds" />
          </mxGeometry>
        </mxCell>
        <mxCell id="rGoYTu1NoxP7TWy1emnq-80" value="Value 3" style="connectable=0;recursiveResize=0;strokeColor=inherit;fillColor=inherit;align=center;whiteSpace=wrap;html=1;" vertex="1" parent="rGoYTu1NoxP7TWy1emnq-77">
          <mxGeometry x="540" width="90" height="30" as="geometry">
            <mxRectangle width="90" height="30" as="alternateBounds" />
          </mxGeometry>
        </mxCell>
        <mxCell id="rGoYTu1NoxP7TWy1emnq-81" value="" style="shape=tableRow;horizontal=0;startSize=0;swimlaneHead=0;swimlaneBody=0;top=0;left=0;bottom=0;right=0;dropTarget=0;collapsible=0;recursiveResize=0;expand=0;fontStyle=1;strokeColor=inherit;fillColor=#EAF2D3;" vertex="1" parent="rGoYTu1NoxP7TWy1emnq-72">
          <mxGeometry y="50" width="630" height="31" as="geometry" />
        </mxCell>
        <mxCell id="rGoYTu1NoxP7TWy1emnq-82" value="2023-02-21&amp;nbsp; 09:03:45.04546" style="connectable=0;recursiveResize=0;strokeColor=inherit;fillColor=inherit;whiteSpace=wrap;html=1;" vertex="1" parent="rGoYTu1NoxP7TWy1emnq-81">
          <mxGeometry width="328" height="31" as="geometry">
            <mxRectangle width="328" height="31" as="alternateBounds" />
          </mxGeometry>
        </mxCell>
        <mxCell id="rGoYTu1NoxP7TWy1emnq-83" value="20230221.CBond123090.WQMarketL2" style="connectable=0;recursiveResize=0;strokeColor=inherit;fillColor=inherit;whiteSpace=wrap;html=1;" vertex="1" parent="rGoYTu1NoxP7TWy1emnq-81">
          <mxGeometry x="328" width="212" height="31" as="geometry">
            <mxRectangle width="212" height="31" as="alternateBounds" />
          </mxGeometry>
        </mxCell>
        <mxCell id="rGoYTu1NoxP7TWy1emnq-84" value="Value 6" style="connectable=0;recursiveResize=0;strokeColor=inherit;fillColor=inherit;whiteSpace=wrap;html=1;" vertex="1" parent="rGoYTu1NoxP7TWy1emnq-81">
          <mxGeometry x="540" width="90" height="31" as="geometry">
            <mxRectangle width="90" height="31" as="alternateBounds" />
          </mxGeometry>
        </mxCell>
        <mxCell id="rGoYTu1NoxP7TWy1emnq-85" value="" style="shape=tableRow;horizontal=0;startSize=0;swimlaneHead=0;swimlaneBody=0;top=0;left=0;bottom=0;right=0;dropTarget=0;collapsible=0;recursiveResize=0;expand=0;fontStyle=0;strokeColor=inherit;fillColor=#ffffff;" vertex="1" parent="rGoYTu1NoxP7TWy1emnq-72">
          <mxGeometry y="81" width="630" height="33" as="geometry" />
        </mxCell>
        <mxCell id="rGoYTu1NoxP7TWy1emnq-86" value="2023-02-21&amp;nbsp; 09:03:45.04546" style="connectable=0;recursiveResize=0;strokeColor=inherit;fillColor=inherit;fontStyle=0;align=center;whiteSpace=wrap;html=1;" vertex="1" parent="rGoYTu1NoxP7TWy1emnq-85">
          <mxGeometry width="328" height="33" as="geometry">
            <mxRectangle width="328" height="33" as="alternateBounds" />
          </mxGeometry>
        </mxCell>
        <mxCell id="rGoYTu1NoxP7TWy1emnq-87" value="20230221.CBond123090.WQMarketL2" style="connectable=0;recursiveResize=0;strokeColor=inherit;fillColor=inherit;fontStyle=0;align=center;whiteSpace=wrap;html=1;" vertex="1" parent="rGoYTu1NoxP7TWy1emnq-85">
          <mxGeometry x="328" width="212" height="33" as="geometry">
            <mxRectangle width="212" height="33" as="alternateBounds" />
          </mxGeometry>
        </mxCell>
        <mxCell id="rGoYTu1NoxP7TWy1emnq-88" value="Value 9" style="connectable=0;recursiveResize=0;strokeColor=inherit;fillColor=inherit;fontStyle=0;align=center;whiteSpace=wrap;html=1;" vertex="1" parent="rGoYTu1NoxP7TWy1emnq-85">
          <mxGeometry x="540" width="90" height="33" as="geometry">
            <mxRectangle width="90" height="33" as="alternateBounds" />
          </mxGeometry>
        </mxCell>
        <mxCell id="rGoYTu1NoxP7TWy1emnq-89" value="" style="shape=tableRow;horizontal=0;startSize=0;swimlaneHead=0;swimlaneBody=0;top=0;left=0;bottom=0;right=0;dropTarget=0;collapsible=0;recursiveResize=0;expand=0;fontStyle=1;strokeColor=inherit;fillColor=#EAF2D3;" vertex="1" parent="rGoYTu1NoxP7TWy1emnq-72">
          <mxGeometry y="114" width="630" height="31" as="geometry" />
        </mxCell>
        <mxCell id="rGoYTu1NoxP7TWy1emnq-90" value="2023-02-22&amp;nbsp; 09:02:45.04546" style="connectable=0;recursiveResize=0;strokeColor=inherit;fillColor=inherit;whiteSpace=wrap;html=1;" vertex="1" parent="rGoYTu1NoxP7TWy1emnq-89">
          <mxGeometry width="328" height="31" as="geometry">
            <mxRectangle width="328" height="31" as="alternateBounds" />
          </mxGeometry>
        </mxCell>
        <mxCell id="rGoYTu1NoxP7TWy1emnq-91" value="20230221.CBond123090.WQMarketL2" style="connectable=0;recursiveResize=0;strokeColor=inherit;fillColor=inherit;whiteSpace=wrap;html=1;" vertex="1" parent="rGoYTu1NoxP7TWy1emnq-89">
          <mxGeometry x="328" width="212" height="31" as="geometry">
            <mxRectangle width="212" height="31" as="alternateBounds" />
          </mxGeometry>
        </mxCell>
        <mxCell id="rGoYTu1NoxP7TWy1emnq-92" value="Value 12" style="connectable=0;recursiveResize=0;strokeColor=inherit;fillColor=inherit;whiteSpace=wrap;html=1;" vertex="1" parent="rGoYTu1NoxP7TWy1emnq-89">
          <mxGeometry x="540" width="90" height="31" as="geometry">
            <mxRectangle width="90" height="31" as="alternateBounds" />
          </mxGeometry>
        </mxCell>
        <mxCell id="rGoYTu1NoxP7TWy1emnq-93" value="某个股票数据" style="text;html=1;strokeColor=none;fillColor=none;align=center;verticalAlign=middle;whiteSpace=wrap;rounded=0;fontSize=22;" vertex="1" parent="1">
          <mxGeometry x="350" y="140" width="200" height="30" as="geometry" />
        </mxCell>
        <mxCell id="rGoYTu1NoxP7TWy1emnq-94" value="某个债券数据" style="text;html=1;strokeColor=none;fillColor=none;align=center;verticalAlign=middle;whiteSpace=wrap;rounded=0;fontSize=22;" vertex="1" parent="1">
          <mxGeometry x="1030" y="140" width="200" height="30" as="geometry" />
        </mxCell>
        <mxCell id="rGoYTu1NoxP7TWy1emnq-100" value="股票 MarketL2 数据" style="text;html=1;strokeColor=none;fillColor=none;align=center;verticalAlign=middle;whiteSpace=wrap;rounded=0;fontSize=22;" vertex="1" parent="1">
          <mxGeometry x="356.52" y="595.17" width="240" height="30" as="geometry" />
        </mxCell>
        <mxCell id="rGoYTu1NoxP7TWy1emnq-105" value="债券数据&amp;nbsp; CBond-MarketL2" style="rounded=0;whiteSpace=wrap;html=1;fontSize=22;fillColor=#FFFFFF;dashed=1;" vertex="1" parent="1">
          <mxGeometry x="1000" y="632.5" width="410" height="160" as="geometry" />
        </mxCell>
        <mxCell id="rGoYTu1NoxP7TWy1emnq-122" style="edgeStyle=none;rounded=0;orthogonalLoop=1;jettySize=auto;html=1;entryX=0.5;entryY=0;entryDx=0;entryDy=0;fontSize=22;dashed=1;" edge="1" parent="1" source="rGoYTu1NoxP7TWy1emnq-107" target="rGoYTu1NoxP7TWy1emnq-121">
          <mxGeometry relative="1" as="geometry" />
        </mxCell>
        <mxCell id="rGoYTu1NoxP7TWy1emnq-123" style="edgeStyle=none;rounded=0;orthogonalLoop=1;jettySize=auto;html=1;fontSize=22;dashed=1;" edge="1" parent="1" source="rGoYTu1NoxP7TWy1emnq-107" target="rGoYTu1NoxP7TWy1emnq-119">
          <mxGeometry relative="1" as="geometry" />
        </mxCell>
        <mxCell id="rGoYTu1NoxP7TWy1emnq-124" style="edgeStyle=none;rounded=0;orthogonalLoop=1;jettySize=auto;html=1;entryX=0.5;entryY=0;entryDx=0;entryDy=0;fontSize=22;" edge="1" parent="1" source="rGoYTu1NoxP7TWy1emnq-107" target="rGoYTu1NoxP7TWy1emnq-120">
          <mxGeometry relative="1" as="geometry" />
        </mxCell>
        <mxCell id="rGoYTu1NoxP7TWy1emnq-107" value="190000001" style="rounded=0;whiteSpace=wrap;html=1;fontSize=22;fillColor=#FFFFFF;" vertex="1" parent="1">
          <mxGeometry x="546" y="1060" width="120" height="60" as="geometry" />
        </mxCell>
        <mxCell id="rGoYTu1NoxP7TWy1emnq-108" value="190000003" style="rounded=0;whiteSpace=wrap;html=1;fontSize=22;fillColor=#FFFFFF;dashed=1;" vertex="1" parent="1">
          <mxGeometry x="376" y="1060" width="120" height="60" as="geometry" />
        </mxCell>
        <mxCell id="rGoYTu1NoxP7TWy1emnq-109" value="190000002" style="rounded=0;whiteSpace=wrap;html=1;fontSize=22;fillColor=#FFFFFF;dashed=1;" vertex="1" parent="1">
          <mxGeometry x="200" y="1060" width="120" height="60" as="geometry" />
        </mxCell>
        <mxCell id="rGoYTu1NoxP7TWy1emnq-113" value="按照证券代码数据拆分" style="text;html=1;strokeColor=#d79b00;fillColor=#ffe6cc;align=center;verticalAlign=middle;whiteSpace=wrap;rounded=0;fontSize=22;" vertex="1" parent="1">
          <mxGeometry x="370" y="980" width="290" height="30" as="geometry" />
        </mxCell>
        <mxCell id="rGoYTu1NoxP7TWy1emnq-114" value="metadata.json" style="aspect=fixed;html=1;points=[];align=center;image;fontSize=12;image=img/lib/azure2/general/File.svg;dashed=1;fillColor=#FFFFFF;" vertex="1" parent="1">
          <mxGeometry x="840" y="1040" width="56.00000000000001" height="69" as="geometry" />
        </mxCell>
        <mxCell id="rGoYTu1NoxP7TWy1emnq-115" value="symbols.json" style="aspect=fixed;html=1;points=[];align=center;image;fontSize=12;image=img/lib/azure2/general/File.svg;dashed=1;fillColor=#FFFFFF;" vertex="1" parent="1">
          <mxGeometry x="944" y="1040" width="56.00000000000001" height="69" as="geometry" />
        </mxCell>
        <mxCell id="rGoYTu1NoxP7TWy1emnq-118" value="更新数据meta和symbols文件" style="text;html=1;strokeColor=#82b366;fillColor=#d5e8d4;align=center;verticalAlign=middle;whiteSpace=wrap;rounded=0;fontSize=22;" vertex="1" parent="1">
          <mxGeometry x="750" y="1000" width="290" height="30" as="geometry" />
        </mxCell>
        <mxCell id="rGoYTu1NoxP7TWy1emnq-119" value="2022" style="rounded=0;whiteSpace=wrap;html=1;fontSize=22;fillColor=#FFFFFF;dashed=1;" vertex="1" parent="1">
          <mxGeometry x="540" y="1260" width="120" height="60" as="geometry" />
        </mxCell>
        <mxCell id="rGoYTu1NoxP7TWy1emnq-131" style="edgeStyle=none;rounded=0;orthogonalLoop=1;jettySize=auto;html=1;fontSize=22;" edge="1" parent="1" source="rGoYTu1NoxP7TWy1emnq-120" target="rGoYTu1NoxP7TWy1emnq-127">
          <mxGeometry relative="1" as="geometry" />
        </mxCell>
        <mxCell id="rGoYTu1NoxP7TWy1emnq-132" style="edgeStyle=none;rounded=0;orthogonalLoop=1;jettySize=auto;html=1;fontSize=22;" edge="1" parent="1" source="rGoYTu1NoxP7TWy1emnq-120" target="rGoYTu1NoxP7TWy1emnq-128">
          <mxGeometry relative="1" as="geometry" />
        </mxCell>
        <mxCell id="rGoYTu1NoxP7TWy1emnq-133" style="edgeStyle=none;rounded=0;orthogonalLoop=1;jettySize=auto;html=1;fontSize=22;" edge="1" parent="1" source="rGoYTu1NoxP7TWy1emnq-120" target="rGoYTu1NoxP7TWy1emnq-129">
          <mxGeometry relative="1" as="geometry" />
        </mxCell>
        <mxCell id="rGoYTu1NoxP7TWy1emnq-138" style="edgeStyle=none;rounded=0;orthogonalLoop=1;jettySize=auto;html=1;entryX=0.5;entryY=0;entryDx=0;entryDy=0;entryPerimeter=0;fontSize=15;fillColor=#dae8fc;strokeColor=#6c8ebf;" edge="1" parent="1" source="rGoYTu1NoxP7TWy1emnq-120" target="rGoYTu1NoxP7TWy1emnq-130">
          <mxGeometry relative="1" as="geometry" />
        </mxCell>
        <mxCell id="rGoYTu1NoxP7TWy1emnq-139" value="&lt;span style=&quot;background-color: rgb(51, 153, 255);&quot;&gt;更新文件meta信息&lt;/span&gt;" style="edgeLabel;html=1;align=center;verticalAlign=middle;resizable=0;points=[];fontSize=15;" vertex="1" connectable="0" parent="rGoYTu1NoxP7TWy1emnq-138">
          <mxGeometry x="-0.1406" y="-1" relative="1" as="geometry">
            <mxPoint x="75" y="33" as="offset" />
          </mxGeometry>
        </mxCell>
        <mxCell id="rGoYTu1NoxP7TWy1emnq-120" value="2023" style="rounded=0;whiteSpace=wrap;html=1;fontSize=22;fillColor=#FFFFFF;" vertex="1" parent="1">
          <mxGeometry x="770" y="1260" width="120" height="60" as="geometry" />
        </mxCell>
        <mxCell id="rGoYTu1NoxP7TWy1emnq-121" value="2021" style="rounded=0;whiteSpace=wrap;html=1;fontSize=22;fillColor=#FFFFFF;dashed=1;" vertex="1" parent="1">
          <mxGeometry x="376" y="1260" width="120" height="60" as="geometry" />
        </mxCell>
        <mxCell id="rGoYTu1NoxP7TWy1emnq-125" value="按照日期时间拆分" style="text;html=1;strokeColor=#d79b00;fillColor=#ffe6cc;align=center;verticalAlign=middle;whiteSpace=wrap;rounded=0;fontSize=22;" vertex="1" parent="1">
          <mxGeometry x="510" y="1169" width="260" height="30" as="geometry" />
        </mxCell>
        <mxCell id="rGoYTu1NoxP7TWy1emnq-127" value="f1.xxx" style="aspect=fixed;html=1;points=[];align=center;image;fontSize=12;image=img/lib/azure2/general/File.svg;dashed=1;fillColor=#FFFFFF;" vertex="1" parent="1">
          <mxGeometry x="701.38" y="1460" width="56.00000000000001" height="69" as="geometry" />
        </mxCell>
        <mxCell id="rGoYTu1NoxP7TWy1emnq-128" value="f2.xxx" style="aspect=fixed;html=1;points=[];align=center;image;fontSize=12;image=img/lib/azure2/general/File.svg;dashed=1;fillColor=#FFFFFF;" vertex="1" parent="1">
          <mxGeometry x="805.38" y="1460" width="56.00000000000001" height="69" as="geometry" />
        </mxCell>
        <mxCell id="rGoYTu1NoxP7TWy1emnq-129" value="f3.xxx" style="aspect=fixed;html=1;points=[];align=center;image;fontSize=12;image=img/lib/azure2/general/File.svg;dashed=1;fillColor=#FFFFFF;" vertex="1" parent="1">
          <mxGeometry x="905.38" y="1460" width="56.00000000000001" height="69" as="geometry" />
        </mxCell>
        <mxCell id="rGoYTu1NoxP7TWy1emnq-130" value="" style="verticalLabelPosition=bottom;html=1;verticalAlign=top;align=center;strokeColor=none;fillColor=#00BEF2;shape=mxgraph.azure.file_2;pointerEvents=1;dashed=1;fontSize=22;" vertex="1" parent="1">
          <mxGeometry x="1080" y="1460" width="83.75" height="110" as="geometry" />
        </mxCell>
        <mxCell id="rGoYTu1NoxP7TWy1emnq-134" value="写入文件" style="text;html=1;strokeColor=#d79b00;fillColor=#ffe6cc;align=center;verticalAlign=middle;whiteSpace=wrap;rounded=0;fontSize=22;" vertex="1" parent="1">
          <mxGeometry x="769.75" y="1350" width="160" height="30" as="geometry" />
        </mxCell>
        <mxCell id="rGoYTu1NoxP7TWy1emnq-136" value="&lt;font style=&quot;font-size: 15px;&quot;&gt;文件partion记录&lt;br&gt;例如:&amp;nbsp;&lt;br&gt;f1: start 2022-01-01, end 2022-10-11&lt;br&gt;f2: start 2022-10-11, end 2023-01-11&lt;br&gt;f3: start 2023-01-11, end 2023-02-21&lt;br style=&quot;border-color: var(--border-color);&quot;&gt;&lt;/font&gt;" style="text;html=1;align=center;verticalAlign=middle;resizable=0;points=[];autosize=1;strokeColor=none;fillColor=none;fontSize=22;" vertex="1" parent="1">
          <mxGeometry x="1170" y="1440" width="270" height="150" as="geometry" />
        </mxCell>
        <mxCell id="rGoYTu1NoxP7TWy1emnq-137" value="支持多种文件格式&lt;br&gt;arrow / feather / parquet" style="text;html=1;strokeColor=none;fillColor=none;align=center;verticalAlign=middle;whiteSpace=wrap;rounded=0;fontSize=15;" vertex="1" parent="1">
          <mxGeometry x="732.38" y="1580" width="210" height="30" as="geometry" />
        </mxCell>
      </root>
    </mxGraphModel>
  </diagram>
</mxfile>
